
<svg width="824px" height="824px" viewBox="0 0 824 824" version="1.1" xmlns="http://www.w3.org/2000/svg" xmlns:xlink="http://www.w3.org/1999/xlink">
    <g id="Page-1" stroke="none" stroke-width="1" fill="none" fill-rule="evenodd">
        <g id="Group" transform="translate(154.5, 151.2812)">
            <path d="M421.217164,7.89209258 C431.114647,14.95994 437.934317,24.6431224 443.213404,35.4523437 C446.629508,42.447111 449.444266,49.7228775 451.760807,57.1246753 C453.324523,62.1208993 454.462241,67.2944982 455.508028,72.4739915 C456.853816,79.1389284 457.812632,85.831764 458.805378,92.5480778 C461.379275,109.961716 460.986938,127.43986 460.443928,144.916162 C460.233711,151.682312 459.344498,158.454993 458.319834,165.156872 C458.218775,165.817923 458.13351,166.488378 458.047063,167.161866 L457.941674,167.9711 C457.599265,170.535702 457.141747,173.107311 455.637644,175.336374 C454.783836,176.601573 455.933423,177.095683 456.410852,177.542769 C465.647109,186.191346 475.045571,194.70036 483.401935,204.202952 C488.251268,209.7173 492.539688,215.737982 496.103514,222.257597 C496.658253,223.272383 497.295309,224.27204 497.944722,225.269162 L498.502756,226.123512 C500.083181,228.544075 501.618597,230.970916 502.106926,233.584439 C503.131456,239.067974 505.499897,243.95823 507.147767,249.124929 C509.055408,255.106224 510.693891,261.155508 512.08635,267.239624 C512.73591,270.077682 513.147156,273.083602 513.599172,276.017982 C514.811992,283.892991 514.893262,291.809529 514.958641,299.728412 C515,304.29118 515.163694,308.94123 514.390419,313.399303 C513.473646,318.68443 512.863984,324.023748 511.646739,329.291259 C510.564073,333.97681 509.348236,338.652916 507.836554,343.149973 C505.399717,350.398879 502.624924,357.590044 498.779468,364.279833 C496.525355,368.201361 494.504861,372.272867 491.638002,375.805016 C490.300863,377.452428 490.92293,379.080481 491.693657,380.489093 C495.668664,387.754411 498.896143,395.312851 501.67107,403.12074 C503.744537,408.954804 505.526584,414.829058 507.069447,420.822143 C509.231025,429.219026 510.510631,437.709083 511.603623,446.301628 C513.22722,459.065752 512.70607,471.818556 512.173857,484.549858 C511.88009,491.579659 510.510564,498.646568 508.869197,505.516343 C507.012987,513.285114 504.676397,520.934921 501.725854,528.435487 C498.029661,537.831708 493.244031,546.564584 487.838948,555.005609 C487.055815,556.228542 486.916073,556.972268 487.703632,558.056476 C490.963699,562.544692 493.535652,567.43709 495.541327,572.572976 C497.398408,577.32866 498.75278,582.277727 500.448058,587.099659 C502.367367,592.558677 503.022358,598.311556 504.488242,603.877281 C505.125664,606.297557 505.189433,608.889112 505.517934,611.389569 C507.328748,625.174132 507.526291,639.062119 506.550109,652.902078 C506.164879,658.364513 504.819425,663.853875 504.05024,669.29367 C503.529041,672.980002 501.967485,672.757495 499.905108,672.691486 L499.607134,672.683559 C499.506713,672.681565 499.405214,672.680364 499.302696,672.680396 C487.675736,672.683946 476.04871,672.691314 464.421751,672.670951 L464.313945,672.671683 L464.101683,672.677696 C462.738472,672.732185 461.722394,673.031135 462.551392,670.301314 C463.884172,665.91304 465.798183,661.619548 466.289561,656.728556 C468.034192,650.648659 467.882245,644.527367 467.820823,638.644405 C467.753768,632.212439 468.153213,625.637061 466.58373,619.207306 C465.848676,616.195892 466.021007,613.001814 465.331885,609.894814 C464.084867,604.272823 462.774014,598.703146 461.082356,593.178818 C457.970479,583.016095 451.379868,574.699996 446.95982,565.256818 C444.654209,560.331195 443.689962,555.356272 445.036086,549.710702 C446.428076,543.872351 450.149146,539.713029 453.430269,535.207063 C457.762207,529.25792 461.305783,522.936211 464.150514,516.16718 C466.535249,510.492539 468.295705,504.667786 469.783113,498.688299 C471.287918,492.638948 471.995318,486.528251 472.618211,480.392143 L472.864551,477.936429 C473.028026,476.298497 473.192251,474.659098 473.370744,473.018915 C474.221468,465.201714 472.840341,457.639255 472.557638,449.988644 C472.370958,444.935416 471.121057,439.763559 469.891675,434.696197 C468.550446,429.167649 467.083556,423.708697 465.284075,418.318538 C462.560512,410.160321 458.880077,402.454849 454.729589,394.934925 C452.665375,391.194924 449.728444,387.963134 448.262761,383.897589 C446.856221,379.995955 446.25085,376.223735 447.208794,371.855086 C448.27235,367.005357 451.173138,363.950806 454.18953,360.535344 C459.171497,354.893994 463.050548,348.457139 466.246176,341.637066 C468.898996,335.975286 471.192135,330.125213 472.657818,324.082828 C473.87627,319.059877 475.047583,313.963377 475.255519,308.705312 C475.397809,305.108121 476.308547,301.575905 476.176047,297.908247 C475.881877,289.769121 474.732157,281.787138 473.200157,273.781846 C471.894332,266.958625 469.733359,260.429465 467.131098,254.139975 C463.438996,245.216797 458.659065,236.794059 452.591548,229.128109 C445.477172,220.139621 437.417794,212.274091 427.82655,205.9423 C421.921909,202.04425 415.757699,198.716169 409.09601,196.349513 C402.807012,194.115252 396.403886,192.533452 389.731401,191.591184 C383.976226,190.77843 378.260679,190.526871 372.622581,191.146241 C368.916666,191.553338 365.222955,191.795252 361.513687,192.074141 C356.243183,192.470487 352.047232,189.900099 350.088897,184.444195 C347.681095,177.735919 343.869636,171.865884 339.937075,166.018089 C330.605802,152.142394 317.467764,142.745335 302.932439,135.237702 C296.052084,131.683918 288.639248,129.211393 281.124622,126.977836 C269.827572,123.620148 258.406873,123.038054 246.926093,124.203715 C240.166169,124.890103 233.507732,126.758898 226.999263,129.096214 C220.050479,131.591647 213.371758,134.517822 206.906137,138.066951 C193.136543,145.625325 181.670616,155.620017 173.001609,168.796731 C169.766285,173.714283 166.912534,178.858207 164.704455,184.240562 C163.367383,187.499683 161.677603,189.711404 158.620946,191.292802 C157.470588,191.887958 156.424131,191.90323 155.3129,191.99463 C149.831911,192.4453 144.438664,191.505344 139.023288,190.899906 C132.613959,190.183342 126.223071,191.030626 120.020674,192.228707 C109.093364,194.339516 98.8273472,198.470805 89.3353106,204.404375 C79.4918062,210.557685 70.9818872,218.236563 63.7612636,227.250673 C57.5908509,234.953665 52.5158455,243.348873 48.5682651,252.482248 C45.4384842,259.723451 43.1467874,267.191932 41.3347332,274.790696 C40.9333601,276.473844 40.677169,278.221548 40.4455283,279.977575 L40.1716232,282.085203 C40.0328423,283.137415 39.8855287,284.184526 39.7036259,285.21439 C38.5633266,291.670268 38.6334656,298.12032 39.10191,304.509951 C39.5255618,310.289021 40.4004256,316.075057 41.8128334,321.789822 C42.9209803,326.273415 44.1132138,330.754061 45.661944,335.047554 C47.4056022,339.881475 50.0982198,344.383757 52.5029037,348.96488 C53.494141,350.853368 54.8193438,352.565888 55.9768097,354.368569 C57.8109583,357.225181 60.4172761,359.27336 62.8785211,361.563553 C70.4416273,368.600922 72.1188676,378.546884 65.6211278,388.207894 C60.6895187,395.540195 56.9827652,403.512465 53.2597509,411.489222 C50.4505588,417.508095 48.8313205,423.953524 47.0938986,430.25822 C45.7211198,435.239641 44.9816402,440.550691 44.2014246,445.765485 C43.3882514,451.200724 43.9315963,456.746555 42.8851394,462.021232 C41.3850574,469.582419 43.2096512,476.89496 43.6898971,484.228668 C44.1843592,491.779138 46.2697617,499.272871 48.5409401,506.650387 C52.2115511,518.573926 57.8846519,529.270915 65.6655512,538.968231 C69.7488843,544.057429 72.5283713,549.770586 71.802235,556.542966 C71.456367,559.768795 70.4551723,562.787777 68.8174265,565.738167 C66.1485469,570.546099 63.6436157,575.453971 60.9714501,580.268734 C59.435192,583.03686 57.9661567,585.844306 56.5430537,588.672315 C54.9555656,591.826807 54.1959696,595.293445 53.3461172,598.664764 C51.6894624,605.236593 50.4606508,611.896908 49.5451521,618.647049 C49.0069373,622.615533 49.1325305,626.563319 48.6425613,630.489268 C47.9898154,635.719577 48.3033741,640.946989 48.6644975,646.157147 L48.7924318,647.995287 C48.8347375,648.607746 48.8762056,649.219942 48.91534,649.831853 C49.2837727,655.592435 50.4417077,661.303851 52.7210665,666.680411 C53.3916475,668.262246 52.9278969,670.104783 54.0896875,671.561959 C54.4467209,672.009816 54.1625429,672.599546 53.3857468,672.608053 C52.5630853,672.617028 51.7407259,672.678453 50.9182325,672.678788 C39.4743659,672.683745 28.0303317,672.653602 16.5866996,672.705448 C14.2127267,672.71875 12.88293,672.808536 12.2321638,669.463609 C11.1170768,663.731763 10.050537,657.969172 9.59624127,652.204035 C8.7851137,641.909956 8.83017436,631.536836 9.61793363,621.238872 C10.1943361,613.704211 11.2562155,606.157828 12.7807051,598.756331 C14.7965724,588.969324 17.4143566,579.281721 21.5613583,570.137562 C23.3918188,566.101356 25.5122241,562.143857 28.1579705,558.553031 C29.1629197,557.189029 29.2843563,556.463322 28.2368936,554.906473 C23.0251966,547.160075 18.5644462,538.937954 15.051783,530.311114 C12.6397224,524.387358 10.5169029,518.310678 9.076936,511.994259 C7.84778871,506.602694 6.76974906,501.206976 5.7229241,495.779239 C2.77606871,480.499586 3.34529606,465.122538 4.034351,449.776103 C4.36861923,442.330866 5.81177156,434.883284 7.33367993,427.557212 C8.95627071,419.746375 11.1362544,412.029182 13.8048995,404.499947 C16.7014302,396.327797 20.0094091,388.308103 24.3271657,380.745576 C24.9639844,379.630154 24.9444717,378.516808 24.1112491,377.283627 C19.5016372,370.461277 15.1504203,363.459007 11.9290092,355.869218 C9.57669508,350.327139 7.50959783,344.670383 5.76027351,338.873696 C4.13841991,333.499413 2.88214921,328.052451 1.80085763,322.588543 C0.673901699,316.894275 0.217627849,311.053178 0.11520138,305.225678 L0.0678135912,302.513155 C-0.0536138674,295.277173 -0.101906661,288.024418 0.729691532,280.849359 C1.3525631,275.475142 2.19835833,270.094629 3.49221355,264.762612 C5.12586858,258.030155 6.91049722,251.377744 9.26904764,244.878928 C12.1768771,236.866536 15.8937226,229.24091 20.1990736,221.870763 C25.1393996,213.413728 31.0941978,205.730362 37.8086585,198.672596 C42.0212822,194.244617 46.4434625,190.014284 50.8881402,185.808685 L54.2229439,182.656422 C54.7784733,182.130917 55.3336235,181.605123 55.8880292,181.078703 C56.3500697,180.639989 56.7637307,180.094938 57.3391949,179.681846 C60.1994825,177.628811 61.455049,175.338049 59.0201567,171.801479 C57.9651174,170.269046 58.1212545,167.741695 57.9702803,165.736319 C57.635543,161.289936 56.8672299,156.903202 56.4160186,152.480397 C55.1253148,139.827801 55.4217639,127.160536 55.4730944,114.494744 C55.5099072,105.410837 56.7914578,96.4015836 57.8554158,87.4003019 C58.5555344,81.4774171 59.6142954,75.5525223 61.0898017,69.7756301 C63.3949771,60.7503341 65.8750975,51.7798316 69.5141927,43.1260974 C74.8576857,30.4192781 81.6114744,18.772284 92.3983719,9.91424803 C97.8443584,5.44210906 103.920793,2.26172812 111.046735,0.845043907 C123.073677,-1.54599392 133.617669,1.24400246 143.435659,8.23588952 C154.598834,16.1856522 161.719378,27.1512817 167.544291,39.2230903 C170.901019,46.1797101 173.32364,53.4934902 175.96895,60.705689 C177.727863,65.5010946 178.247001,70.7350126 179.648546,75.6800604 C181.659921,82.7764766 182.265995,90.1112903 183.673977,97.3067093 C184.021455,99.0825298 183.919331,100.948109 184.000635,102.773465 C184.086432,104.700267 184.07939,105.906219 186.690637,104.342538 C194.855023,99.4536225 203.564631,95.5702754 212.526768,92.4444201 C218.108808,90.4974546 223.804037,88.7288011 229.678469,87.5998144 C234.558279,86.6619341 239.474029,86.0738457 244.352062,85.272814 C251.91681,84.0306907 259.467143,84.1570568 266.944687,84.7668482 C272.775903,85.2423696 278.644065,86.1128306 284.443028,87.4452148 C291.34779,89.0316371 298.140102,90.9102786 304.750092,93.3477701 C312.374016,96.1591677 319.81401,99.4736508 326.787034,103.69969 C327.568825,104.17347 328.45596,104.346892 329.238354,105.047347 C330.583205,106.251423 332.191111,105.368704 332.10803,103.502254 C331.907738,99.0002058 333.027015,94.6416051 333.631849,90.2699758 C334.271686,85.6458492 335.258866,81.002197 336.341934,76.406204 C337.196145,72.7813157 338.128273,69.1438004 338.977857,65.509032 C339.677976,62.5134948 340.865784,59.5854437 341.729315,56.6333454 C342.702816,53.3053316 344.116599,50.2095185 345.321438,47.0027461 C348.729161,37.9321691 353.306989,29.5256742 359.041244,21.7122245 C364.107365,14.8092254 370.316501,9.14054607 377.693597,4.90576584 C381.081405,2.96104407 384.882806,1.72682533 388.816774,0.845780858 C391.803661,0.176842339 394.716654,0.0977673859 397.694824,0.0137016857 C406.503875,-0.234977473 414.25574,2.92088707 421.217164,7.89209258 Z M399.165201,40.3380436 C397.669142,39.1254944 396.461754,39.0624952 395.086662,40.3089727 C394.32311,41.0012215 393.459311,41.6015017 392.782996,42.3684048 C388.26592,47.4905592 385.168258,53.4030954 382.439062,59.6569494 C379.353001,66.7287153 377.262904,74.0752511 375.2406,81.4495853 C373.857528,86.4929665 372.760982,91.6569191 372.070788,96.8380537 C371.019839,104.727028 370.413395,112.675819 369.653196,120.602539 C369.116355,126.200249 370.123249,131.855331 368.865168,137.455452 C368.453251,139.288912 368.470618,141.349684 369.563275,143.22032 C370.802313,145.341378 371.947072,147.542348 372.862973,149.817001 C373.371717,151.080559 374.065734,151.524631 375.292634,151.481727 C381.704142,151.257431 387.959077,152.462277 394.281804,153.253797 C398.644252,153.799887 402.953258,155.140711 407.433455,154.809172 C408.029907,154.765063 408.651236,155.064148 409.261837,155.200829 C412.07874,155.831755 414.809679,156.676091 417.478593,157.824303 C418.908938,158.439687 420.268741,158.211673 420.1522,155.902523 C420.034988,153.580245 420.683139,151.270392 420.934192,148.977487 C421.562697,143.235627 421.653086,137.432643 422.041602,131.657392 C422.390286,126.475018 422.419925,121.229546 421.555589,115.957815 C420.698696,110.731366 421.038328,105.341006 420.410696,100.007114 C419.719093,94.1297113 418.645412,88.3228094 417.701818,82.5030802 C417.381564,80.5277138 417.098191,78.4490238 416.517095,76.489164 C415.197993,72.0404358 413.909067,67.5772725 412.39658,63.1927155 C410.741266,58.3938266 408.933604,53.6375739 405.991174,49.1820802 C404.037802,45.8116986 402.104412,42.7201392 399.165201,40.3380436 Z M120.625273,40.1172973 C119.181048,39.2560468 118.334347,39.2890362 117.092259,40.2627533 C113.551399,43.0385824 111.346437,46.8349171 109.279574,50.6462564 C105.709177,57.2302092 103.324542,64.2749137 101.22774,71.4879158 C99.6224826,77.0098326 98.60781,82.6326613 97.3530142,88.2020031 C96.5820292,91.6239216 96.1632839,95.1355892 95.7781604,98.6474555 L95.5228959,100.987746 C95.437137,101.767198 95.3495421,102.545677 95.2566144,103.3222 C94.5606195,109.138479 94.5372177,115.040599 94.1400855,120.902662 C93.782382,126.182866 94.1179576,131.521012 94.5987066,136.866827 C95.1807088,143.338179 95.53744,149.854981 96.0664681,156.348672 C96.2020868,158.013332 96.967215,158.118966 98.1780564,157.670004 C102.618824,156.023397 107.142171,154.733781 111.915564,154.651659 C113.858035,154.618259 115.763177,154.316174 117.665103,153.983089 L119.295333,153.695541 C120.382689,153.506173 121.472177,153.328858 122.570163,153.207946 C127.789739,152.633221 132.945981,151.249158 138.244078,151.523526 C141.020715,151.667307 142.94227,151.260646 143.955467,148.248362 C145.112128,144.809456 148.018248,142.009512 147.465918,137.916772 C147.273236,136.489337 146.574861,135.216066 146.654454,133.701485 C147.181706,123.668778 145.788107,113.718497 145.151556,103.506909 C143.87366,98.3729651 143.3679,93.3412725 142.383167,88.3881193 C141.34697,83.1759043 140.137436,77.991789 138.651402,72.9413746 C136.458544,65.4887025 133.863055,58.060781 129.854254,51.352003 C129.774488,51.2185141 129.694912,51.084718 129.615446,50.950684 L129.139348,50.1441801 C126.91784,46.3723507 124.658971,42.5227331 120.625273,40.1172973 Z" id="Combined-Shape" fill="#020202" fill-rule="nonzero"></path>
            <path d="M260.863088,284.501878 C267.788102,285.358875 274.826638,285.02335 281.689022,286.481666 C296.367241,289.600655 310.2805,294.688983 322.908922,302.903936 C332.347818,309.044051 340.687485,316.468188 347.466185,325.481192 C352.234381,331.820987 355.809405,338.803296 358.908073,346.176725 C363.894466,358.042456 364.077794,370.372992 362.651271,382.555491 C361.195378,394.989049 355.582895,406.176698 347.463368,415.881783 C338.370542,426.750186 327.185674,434.732837 314.06849,440.160709 C306.822955,443.158925 296.125,447.40625 257.5,447.40625 C218.875,447.40625 196.05366,439.139399 182.622928,429.097249 C172.393892,421.449049 164.531152,411.892735 158.965171,400.511434 C156.668546,395.8153 155.152907,390.784445 154.084792,385.55324 C152.398935,377.296622 152.912373,369.043488 153.447403,360.846486 C153.772686,355.863056 155.456598,350.939577 157.326051,346.128966 C159.715548,339.980008 162.76788,334.286813 166.380522,328.817278 C172.867701,318.995706 181.503784,311.330962 190.869188,304.423743 C193.394738,302.561043 196.271253,301.173062 199.178076,299.488876 C204.537931,296.215689 210.171134,294.040508 215.789485,291.801424 C220.033849,290.109802 224.477066,289.104368 228.807361,287.720004 C230.566844,287.157537 232.51978,286.787248 234.322447,286.61751 C238.09773,286.262024 241.727337,284.983294 245.594084,285.183041 C250.692055,285.446423 255.743826,283.868407 260.863088,284.501878 Z M260.272604,310.63955 C255.739435,310.494931 251.228628,310.649732 246.695257,311.414223 C242.748112,312.079779 238.821016,312.691279 234.90247,313.588667 C229.235472,314.886488 223.869885,316.807597 218.589926,319.19753 C205.759032,325.005336 195.059775,333.264834 187.189592,345.087762 C182.054605,352.801806 178.440617,358.816978 178.440617,369.79268 C178.440617,380.768383 181.279217,386.427519 183.288077,390.283 C187.023698,397.452396 192.236401,403.503756 198.931583,408.316042 C206.083745,413.456751 213.807514,417.080199 222.311867,419.320623 C228.22261,420.87774 239.796875,423.265826 257.5,423.265826 C275.203125,423.265826 297.898437,418.898086 304.959303,415.579283 C317.561171,409.656063 328.097619,401.393082 333.778364,387.921938 C336.085383,382.451264 336.656964,378.573243 336.656964,369.79268 C336.656964,361.012118 334.96416,356.391964 332.99208,352.227751 C328.38059,342.490446 321.546169,334.470484 312.819997,328.068862 C303.359577,321.128553 292.955361,316.38352 281.522056,313.628054 C274.503501,311.9365 267.452828,310.868569 260.272604,310.63955 Z" id="Combined-Shape" fill="#030303" fill-rule="nonzero"></path>
            <path d="M100.597727,314.647287 C102.280064,308.989459 104.426889,303.782569 107.786265,299.187246 C113.008691,292.043438 120.320543,289.003691 128.959777,289.343435 C138.599669,289.722566 145.532125,294.58864 150.20031,302.96382 C152.473164,307.041422 152.683683,311.394463 152.388005,315.810067 C151.631962,327.101073 145.118834,334.993229 136.212788,340.861053 C131.618766,343.887738 126.127719,344.164115 120.438961,342.653687 C116.261081,341.544293 112.403086,340.24319 109.08867,337.502193 C103.374531,332.776451 100.291589,326.801452 100.527722,319.27416 C100.57352,317.813768 100.56192,316.351702 100.597727,314.647287 Z" id="Path" fill="#030303" fill-rule="nonzero"></path>
            <path d="M413.655265,328.751097 C410.902197,334.814247 406.655218,339.017244 400.542238,341.297858 C397.861254,342.298067 395.126157,343.046616 392.300672,343.382744 C384.595946,344.29929 378.748771,340.763055 373.460564,335.631924 C365.374767,327.786322 362.191208,318.264907 364.311614,307.362009 C365.517526,301.161541 369.734533,296.508477 375.034876,293.044518 C380.88936,289.21851 387.458849,288.340346 394.055897,289.861023 C401.852689,291.658279 407.882319,296.188895 411.256581,303.727173 C412.679819,306.906516 414.560034,309.908952 415.137711,313.420939 C415.98649,318.581274 416.441457,323.712204 413.655265,328.751097 Z" id="Path" fill="#030303" fill-rule="nonzero"></path>
            <path d="M262.257962,395.063803 C259.173778,395.091668 256.340983,395.057507 253.511037,395.131859 C249.503074,395.237158 245.52334,390.323459 245.486427,386.84041 C245.446563,383.08105 246.275427,379.488281 247.418509,375.957472 C248.249887,373.389361 247.312965,371.239032 244.758984,369.785941 C240.856966,367.565747 237.214217,365.054372 234.90703,360.993851 C231.889633,355.68327 235.053142,348.883226 239.917194,346.694916 C245.824014,344.037515 250.634019,346.554718 255.228645,349.760385 C256.93207,350.948954 258.063821,350.997116 259.69761,349.798968 C263.045319,347.343793 266.591442,345.413841 271.028187,345.631004 C276.197841,345.884004 280.419072,350.107497 280.833537,355.248006 C281.38627,362.10204 277.006923,365.620054 272.038971,368.571315 C267.103808,371.503151 267.076181,372.062871 268.170582,377.701408 C268.887062,381.392912 270.662404,385.195275 268.734445,389.260753 C267.362974,392.152666 265.521047,394.120329 262.257962,395.063803 Z" id="Path" fill="#040404" fill-rule="nonzero"></path>
            <path d="M215.797255,385.158664 C226.052018,392.475799 239.969196,396.134367 257.548791,396.134367 C275.128385,396.134367 289.045564,392.475799 299.300327,385.158664" id="Path-2" stroke="#030303" stroke-width="21.9744927" stroke-linecap="round"></path>
        </g>
    </g>
</svg>
