<?xml version="1.0" encoding="UTF-8"?>
<svg width="675px" height="967px" viewBox="0 0 675 967" version="1.1" xmlns="http://www.w3.org/2000/svg" xmlns:xlink="http://www.w3.org/1999/xlink">
    <title>Shape</title>
    <g id="页面-1" stroke="none" stroke-width="1" fill="none" fill-rule="evenodd">
        <path d="M630.311768,528.170837 C641.935242,542.357178 650.611511,558.217041 656.552673,575.558777 C659.221802,583.349792 660.795654,591.307617 659.314941,599.588562 C657.826725,607.911505 654.578111,615.435183 647.524321,620.309517 L647.120972,620.582581 C643.511329,622.9765 643.82946,624.847229 645.407131,627.838163 L645.615173,628.226196 C652.912598,641.64502 658.434326,655.790222 659.716797,671.095032 L659.796423,672.106722 C660.972705,688.101762 658.088108,702.964235 644.220093,713.647766 C641.527656,715.721942 638.581358,717.480214 635.303371,718.088771 L634.854309,718.164551 C630.193542,718.872253 629.618408,721.606689 630.562927,725.304199 C632.654419,733.491577 632.759888,741.847473 632.166382,750.138916 C631.126526,764.665466 626.39563,777.772949 615.671387,788.197876 C613.034012,790.761727 610.120941,793.041621 606.812389,794.507347 L606.286682,794.731934 C602.364159,796.345849 601.709836,798.469813 603.001645,802.257718 L603.086731,802.50177 C609.454529,820.38623 614.784607,838.601562 618.926636,857.12439 C625.324463,885.734802 630.538574,914.525085 630.259583,944.024231 C630.213013,948.946472 629.434204,953.659424 627.042419,957.985544 C623.841797,963.774658 617.23584,967.268433 612.197693,965.980591 C607.405041,964.755519 605.244064,961.31711 604.803631,953.655753 L604.781677,953.241272 C604.151672,940.263 602.501831,927.396179 600.739746,914.092163 C594.090153,868.615329 584.028347,824.498976 565.619534,782.644416 L564.916443,781.056091 C563.669617,778.257385 563.208313,775.598816 565.642151,773.237427 C568.028381,770.922058 570.622559,771.940735 573.057068,773.120544 C575.149536,774.134521 577.227417,775.260315 579.102905,776.623901 C583.652649,779.931519 587.716003,779.100281 591.805481,775.734253 C599.704895,769.232422 602.826416,760.421814 603.636353,750.707825 C605.07223,733.488473 602.412782,717.01936 593.878651,701.790518 L593.474304,701.077576 C592.8974,700.07251 592.380371,698.989868 592.082336,697.877197 L591.971921,697.451088 C591.475632,695.458648 591.283736,693.422294 593.018982,691.808044 C594.705383,690.239197 596.783081,690.43811 598.655884,691.255676 C602.15686,692.783936 605.58075,694.496887 608.991577,696.222107 C617.194702,700.37146 622.212891,698.848999 626.616516,690.687622 C631.659241,681.341675 631.298035,671.450134 629.189819,661.492737 C625.404602,643.614441 616.824036,627.825623 607.457703,612.401978 L606.27563,610.488798 L603.875138,606.684504 L603.280156,605.730308 L602.691589,604.772217 C601.457458,602.744751 600.18988,600.56427 601.871765,598.292358 C603.669189,595.864258 606.209595,595.714478 609.068726,596.297668 C612.672261,597.032674 616.00342,598.431546 619.322038,599.87505 L620.744292,600.494621 C621.218626,600.700853 621.693461,600.906189 622.169556,601.108826 C628.738525,603.904663 632.349792,601.767517 632.884216,594.571594 C633.52349,585.964215 631.140538,577.939078 628.30098,570.032613 L627.849208,568.785143 L627.162231,566.916748 C626.343617,564.70307 625.46351,562.51115 624.574329,560.322515 L623.684063,558.13429 C621.608778,553.027793 619.579207,547.905645 618.26123,542.533142 C617.035461,537.536621 617.019958,532.619934 620.646118,528.345337 C624.329346,524.003479 626.722595,523.790222 630.311768,528.170837 Z M50.76796,524.91095 C54.616024,526.48822 57.058609,530.324158 57.353092,534.800476 C57.7636463,541.041011 55.5508667,546.648738 53.2513149,552.199461 L52.3898697,554.279434 L52.0707975,555.059423 L50.4589266,559.087714 C47.00402,567.748523 43.6474271,576.431098 41.82074,585.629395 C40.964424,589.941406 40.85228,594.257935 42.482632,598.419922 C43.7463,601.645874 45.954014,603.181213 49.560719,601.85321 C53.191262,600.516495 56.8389095,599.225956 60.4883036,597.94055 L64.137711,596.655334 C67.261414,595.553955 70.431725,594.96405 72.871826,597.904419 C74.869169,600.31134 73.8137036,602.247154 72.4950081,604.071011 L72.0495203,604.675309 C71.751131,605.076067 71.455049,605.473267 71.191887,605.87085 L70.0496067,607.604187 C59.6155662,623.510581 50.2430924,639.92033 45.880257,658.725342 C43.863235,667.41925 43.397804,676.169739 45.43816,684.929871 C46.161194,688.034119 47.476223,690.907898 49.474026,693.443726 C53.745216,698.865112 57.758991,699.759949 63.768013,696.459778 C66.831841,694.777283 69.721794,692.759827 72.851173,691.220886 L73.9637191,690.674904 C76.1655184,689.62105 78.568431,688.76721 80.760178,690.819763 C83.3122466,693.209668 82.5310625,696.140002 81.2165309,698.747037 L81.015701,699.135559 C77.649445,705.498962 75.024246,712.131165 73.078903,719.048279 C69.548279,731.602295 69.278198,744.305847 71.384338,757.524963 C73.153793,763.934692 75.708794,769.521057 79.981133,774.137268 C84.8710235,779.420584 88.5924177,779.919933 94.6745646,776.409894 L94.985878,776.227966 C97.132263,774.958252 99.336319,773.776489 101.568794,772.664429 C103.958649,771.47406 106.425827,771.090332 108.466217,773.281494 C110.378551,775.335062 110.017704,777.5371 108.998409,779.970898 L108.897766,780.207153 C99.550705,801.798584 92.434898,824.158203 86.779251,846.95874 C78.398575,880.744934 72.679222,914.989136 70.134201,949.735413 C69.939934,952.387512 69.614632,955.034546 69.239052,957.66803 C68.309639,964.184937 62.530823,967.706848 56.374222,965.378479 C50.205452,963.045471 46.863541,958.230774 45.725296,951.936401 C43.744207,940.981225 44.5920082,929.989179 45.5898972,919.058118 L46.044502,914.093994 C48.962936,881.664856 56.330311,850.106689 65.811882,819.017212 C67.041496,814.985392 68.3513242,810.977796 69.6768428,806.975328 L71.668823,800.973083 C72.359329,798.887512 72.522621,797.32135 70.026733,796.092957 C49.76955,786.12262 43.314674,768.037354 41.808064,747.252136 C41.2650158,739.760243 41.7497558,732.253385 43.2088783,724.861183 L43.40472,723.897644 C44.0763693,720.685846 43.4668033,718.685393 40.0155975,717.726512 L39.764229,717.65979 C26.962915,714.415039 19.92646,705.468933 16.648251,693.213196 C11.743198,674.875488 16.216949,657.597595 23.067051,640.680054 C24.7870119,636.432332 26.8299128,632.31424 28.8076136,628.172101 L29.692938,626.30166 C30.4403266,624.681649 30.9140367,623.231925 28.983166,621.826904 C13.062973,610.242126 12.309223,594.421204 17.248991,577.472595 C22.2957705,560.156848 31.5003067,544.904706 42.1746669,530.530985 L43.564211,528.667536 C45.3856983,526.251249 47.6555846,523.635343 50.76796,524.91095 Z M401.773315,778.380249 C405.63324,782.197815 403.252594,786.609619 400.845642,790.238525 C389.640747,807.131775 373.547668,816.835876 353.93512,820.569275 C327.057312,825.68573 302.723328,820.055481 281.737793,801.945801 C278.769653,799.384327 276.343078,796.325035 274.062476,793.144608 L273.608185,792.507019 C271.633636,789.719299 270.450378,786.774292 272.965759,783.863159 C275.359497,781.092773 278.279785,781.966492 281.171417,783.359924 C287.016815,786.176758 292.916656,788.880798 299.152588,791.768982 C332.031769,804.713379 362.416016,800.511169 390.820862,780.458984 C391.155081,780.22304 391.491268,779.97323 391.829757,779.718713 L392.595386,779.14197 L393.196792,778.697252 L393.535564,778.454516 C396.083115,776.656748 398.784771,775.424411 401.773315,778.380249 Z M380.265381,573.709167 C387.820496,574.729858 394.874115,576.931274 400.481171,582.522156 C407.796844,589.816711 407.848999,599.028809 400.438385,606.291687 C396.065979,610.576965 390.633698,613.092651 385.015503,615.306458 C375.884735,618.904358 366.394318,621.512024 357.528778,625.87616 C351.320865,628.932147 348.227499,633.587314 348.530663,640.199211 L348.551453,640.575562 C349.239319,651.236023 348.855988,661.897827 349.02774,672.557068 C349.078461,675.704773 349.954987,678.480103 351.86084,680.90509 C368.11496,701.586304 403.739777,713.382935 429.431396,690.597351 C434.853699,685.788513 439.029633,680 442.578888,673.725037 L443.494971,672.138398 L445.357147,668.981995 C447.694519,664.973022 451.056335,662.558533 455.701904,664.159424 C460.408966,665.781494 460.732361,670.175293 460.101288,674.221313 C458.214905,686.315491 453.368378,697.113647 445.40097,706.524475 C424.973877,730.652039 385.812347,737.206055 354.745209,717.513184 C349.953583,714.475891 345.237091,711.353394 340.739105,707.327026 C337.597101,704.651684 335.260296,706.061774 332.986867,707.880493 L332.532806,708.248596 C323.037903,716.021301 312.743561,722.43811 300.912262,725.972839 C265.68573,736.497253 223.777466,720.083191 214.29451,676.761719 C214.011459,675.468689 213.804077,674.136963 213.763779,672.817078 L213.752813,672.324148 C213.720306,668.806794 214.541832,665.642003 218.412811,664.341003 C222.316208,663.029053 225.280685,664.89032 227.516525,667.840881 C231.33577,672.881104 233.899475,678.740845 237.99527,683.647827 C253.993103,702.814148 276.272034,708.165894 299.128387,698.052612 C303.544373,696.098694 307.724518,693.678101 311.689178,690.870728 C320.569113,684.582705 325.961139,676.889772 324.96693,665.313244 L324.921112,664.821777 C324.075287,656.407104 324.53067,647.833496 324.807617,639.343933 C324.996063,633.567383 322.38031,629.942627 317.597107,627.301819 C308.049591,622.030579 297.485382,619.354492 287.424622,615.39801 C282.874146,613.608521 278.634064,611.382935 274.85849,608.319458 C264.980652,600.304565 265.056671,588.27063 275.304352,580.828247 C287.06012,572.290588 299.938812,571.599731 313.291962,576.525757 C318.28653,578.368225 323.035431,580.970947 328.122894,582.445557 C335.903454,584.700919 343.61395,583.854402 350.971366,580.409413 L352.511648,579.67152 C361.273695,575.507174 370.281203,572.360349 380.265381,573.709167 Z M215.252197,360.403473 C219.767685,361.557404 223.679367,363.966736 226.637024,367.344666 C243.090179,386.135925 264.805908,393.931885 288.604187,397.512787 C326.699127,403.244904 364.58374,402.394928 402.211914,393.795349 C419.578095,389.826485 434.499471,381.347732 447.612937,369.4976 L448.278168,368.892151 C451.227509,366.188721 454.320068,363.625031 457.99408,361.926636 L458.436763,361.726162 C460.951349,360.613419 463.562939,359.941652 465.971924,362.01947 C468.484955,364.187042 468.205933,366.961578 467.330566,369.840576 C466.151825,373.717377 464.271423,377.187012 461.875916,380.443604 C460.329803,382.54541 458.297852,384.428467 457.982178,387.207123 C459.252808,388.995178 460.935883,388.462708 462.585236,388.321655 C499.495819,385.165009 536.382996,384.498627 573.307495,388.470337 C593.368958,390.628204 613.210876,393.780975 632.757324,398.770905 C634.691711,399.264709 636.608337,399.845581 638.501038,400.48175 C647.088684,403.368134 649.300903,406.548187 649.415894,415.450714 C649.527808,424.120001 649.122066,432.766847 648.633104,441.410735 L648.257568,447.893402 C647.845032,454.977051 645.020752,458.390411 638.127869,460.351715 C637.166809,460.625183 636.20166,460.895172 635.223999,461.097595 L633.994566,461.358435 C627.275446,462.827527 626.476892,463.893381 625.440313,471.127628 L625.349426,471.7724 C623.12561,487.777649 620.169373,503.637146 615.27771,519.068176 C610.674988,533.587646 604.772522,547.448486 595.282959,559.618652 C584.165833,573.875977 569.023193,581.518494 552.09729,585.839111 C514.629822,595.403137 477.285248,594.641907 440.25705,583.210571 C419.841125,576.907715 404.964203,563.733521 393.758423,545.887207 C381.690559,526.667856 374.201679,505.550103 367.467738,484.102502 L366.693878,481.626404 C365.506805,477.811829 364.352631,473.986877 363.202393,470.16095 C359.426819,457.602539 349.456329,450.780334 335.06366,450.918701 C321.611633,451.048035 314.23233,457.040741 310.307373,470.432434 C303.513702,493.612183 295.793488,516.402893 285.004883,538.161987 C269.041962,570.356873 242.190933,585.702271 207.818176,590.264404 C195.267029,591.930176 182.69017,593.123779 169.54425,592.467285 C151.497055,592.166687 134.353195,589.3255 117.512756,584.188293 C90.241745,575.869202 74.759415,556.089844 64.590431,530.861511 C57.1517926,512.406972 52.4742579,493.215252 49.0310062,473.70658 L48.761707,472.165771 C47.822735,466.740601 45.382801,463.657654 39.911015,462.223907 L38.538518,461.857837 C28.4347397,459.106534 27.8132849,457.470746 26.480179,446.263031 C25.3204219,436.512693 25.8891753,426.720888 25.3114126,416.952433 L25.20401,415.324585 C24.667528,407.987152 27.820927,404.054932 35.043556,401.477203 C50.014904,396.134003 65.654709,393.491943 81.265297,391.064575 C109.95565,386.603271 138.868073,384.751434 167.900009,385.963501 C180.852598,386.504219 193.779376,387.652092 206.718002,388.547941 L210.24704,388.78537 C212.167709,388.910522 214.218033,389.442047 216.34285,387.875397 C215.586456,384.779205 213.322937,382.508759 211.557144,380.000824 C208.933075,376.273865 206.685379,372.416443 206.352097,367.747345 C205.955872,362.19632 209.857971,359.025024 215.252197,360.403473 Z M135.666199,410.287659 L130.54442,410.670682 C117.315451,411.678629 104.118716,412.927224 91.290543,416.683563 L90.6081048,416.887315 C81.116325,419.778801 79.0772609,422.934933 80.495438,432.985199 C83.2825512,452.736727 88.1375258,471.991791 94.9196507,490.742932 L95.5702744,492.528213 L95.9538548,493.64326 C96.3842477,494.834495 96.9742308,496.01274 98.472717,496.62616 C100.131546,488.892151 99.362808,481.350159 100.106232,472.983887 C100.979019,467.235901 101.574509,461.42926 102.776749,455.751068 L102.994841,454.744362 C106.627531,438.355426 113.766591,424.651766 131.831497,419.9729 C136.497787,418.764313 141.218948,417.609253 145.987549,416.97998 C170.418186,413.75596 194.845358,414.859233 219.272542,416.490995 L223.985396,416.811366 L230.22496,417.245361 C236.916794,417.712372 243.547928,419.59021 250.552017,418.551819 C249.677963,416.769012 248.12294,416.985992 246.983887,416.738647 C235.600586,414.266815 224.088913,412.421204 212.497513,411.456238 C186.925903,409.327515 161.310806,408.381378 135.666199,410.287659 Z M445.798431,411.387909 L443.303518,411.661706 C430.414547,413.096762 417.557007,414.891712 405.174713,419.051758 L404.496896,419.284734 C396.196524,422.205633 394.328625,425.498353 395.503235,434.295471 C397.930561,452.475457 402.737058,470.068641 408.558064,487.403266 L409.51624,490.24401 C410.245309,492.359537 411.172356,494.520205 413.632233,496.234375 C414.035858,493.400024 414.611847,491.275452 414.594879,489.15564 C414.501129,477.436157 416.265137,465.966797 418.684357,454.538971 C422.804657,435.075928 433.342072,422.296234 453.796753,418.556183 C469.279999,415.725159 484.808441,414.479797 501.499725,414.669434 C529.244507,414.190918 556.790161,416.799316 584.333862,420.031555 C583.809509,419.528717 583.228088,419.332611 582.643127,419.147614 C561.013123,412.306335 538.610352,410.409058 516.167053,409.463257 C492.696838,408.474152 469.190338,408.853088 445.798431,411.387909 Z M51.938831,420.340027 C50.645813,420.607269 49.343269,420.835663 48.06184,421.150116 C45.615891,421.750305 43.703381,423.10376 43.518147,425.748749 C43.322472,428.542877 45.435802,429.82486 47.701393,430.626953 C52.421246,432.297943 57.153458,432.121887 61.759125,430.178802 C63.508087,429.440948 64.775482,428.177765 64.820602,426.047546 C64.870392,423.696991 63.530014,422.385742 61.562187,421.557617 C58.75478,420.376282 55.795639,420.145355 51.938831,420.340027 Z M610.409851,422.84613 C608.107422,426.548859 609.805664,428.944397 613.233337,430.252319 C617.876587,432.023987 622.662964,431.91684 627.333923,430.12146 C629.441406,429.311401 631.402893,427.984955 631.310974,425.543182 C631.213013,422.941895 629.25238,421.312042 626.825867,420.834808 L626.120713,420.698831 C620.947846,419.723568 615.735641,419.282789 610.409851,422.84613 Z M80.989105,8.2911 C96.393867,19.131584 107.567879,33.869385 118.183037,49.075775 C131.339413,67.9224666 142.07494,88.1286518 152.537153,108.487571 L154.381026,112.081662 L159.904824,122.868221 C161.749381,126.461866 163.601162,130.051424 165.47197,133.630264 C167.38983,137.299123 169.367352,140.939316 171.219745,144.64013 L172.134659,146.496002 C173.339013,148.97967 174.752446,149.795465 177.415517,148.820448 L177.653763,148.729767 C189.152601,144.191098 201.132055,142.368321 213.449218,142.608371 L215.111472,142.645266 C217.011237,142.663975 217.300507,142.445971 219.977539,141.236984 C220.071198,140.924805 220.292648,140.583954 220.233124,140.302536 C217.585754,127.785736 220.096497,122.559464 231.554703,116.549179 C246.079727,108.930252 261.658508,108.783218 277.390015,110.233078 C288.902313,111.294083 299.932159,114.491409 310.653015,118.780807 C312.012177,119.324615 313.465607,119.632767 315.134216,120.126709 C315.999724,118.00266 315.915519,115.973759 315.705072,114.009181 L315.58639,112.97495 C315.532423,112.517812 315.479512,112.063934 315.438385,111.612915 C314.615387,102.586716 317.966614,97.391266 326.760345,94.877686 C337.895538,91.694778 349.165405,92.054855 360.417023,94.151886 C384.803253,98.696823 406.136108,109.206146 423.53714,127.027054 C425.274414,126.308365 425.158691,124.761612 425.617004,123.60643 C429.02301,115.022232 436.283539,110.753357 445.435608,112.112885 C454.577362,113.470856 462.481781,117.566299 469.724121,123.152191 C479.453491,130.656296 487.369049,139.840393 494.58606,149.691711 C495.646027,151.138565 496.349945,152.912201 498.337524,153.934311 C499.860335,152.646357 500.693648,150.905311 501.490175,149.148097 L501.808371,148.445385 C501.914814,148.211551 502.02215,147.978464 502.131927,147.747162 L506.069726,139.455911 C519.21283,111.826967 532.621315,84.3338304 549.123779,58.482224 L550.746392,55.9501776 C562.318697,37.9703685 574.687269,20.6115568 592.766968,8.318092 C610.972473,-4.060932 626.973267,-1.177406 639.846313,16.725113 C652.10614,33.774879 674.069004,97.8798479 674.069004,148.445385 C674.069004,199.010922 661.871582,234.547058 657.231873,246.88501 L656.278187,249.414763 L655.2881,252.009522 C651.739362,261.22046 647.830213,270.243654 641.731708,278.147514 L641.153503,278.885193 C638.875083,281.746539 639.345934,283.999954 641.294815,286.657951 L641.451721,286.868652 C646.624329,293.71167 650.718506,301.04425 651.564514,309.875 C652.424548,318.85149 649.925688,326.558492 643.046068,332.235527 L642.679932,332.53244 C638.94281,335.510834 639.315796,337.783356 641.649719,341.245605 C647.371033,349.733032 651.551514,358.934235 653.750183,369.013947 C656.790466,382.951721 648.202759,391.939148 634.078674,389.459564 C626.37677,388.107422 620.306946,384.569855 617.340027,376.940399 C616.141225,373.857502 616.579864,371.847406 620.454513,371.884017 L621.245223,371.899698 C626.873181,371.950161 628.15257,369.972498 626.142883,363.954559 C622.839478,354.062775 617.894043,345.010773 610.760254,337.317017 C607.140991,333.413635 603.238464,329.772369 599.450989,326.025726 C598.385193,324.971283 597.213806,324.018677 596.195679,322.921997 L595.891814,322.588327 C594.144121,320.628579 592.8763,318.430982 594.445679,315.765198 C596.018311,313.093872 598.698853,313.453857 601.162842,314.029877 C605.377075,315.015137 609.514038,316.336304 613.735901,317.282166 L614.299137,317.401373 C621.512233,318.836264 624.46104,315.799906 621.484802,309.001923 C609.129456,280.781799 589.859375,260.269684 558.142334,254.357849 C550.364075,252.908051 542.607239,252.59137 534.908325,254.924133 C534.202042,255.138092 533.447453,255.218275 532.695104,255.269649 L531.945374,255.315308 C529.728455,255.445648 527.542053,255.427277 526.369324,253.008057 C525.159668,250.512848 526.129883,248.448578 527.777588,246.626862 C532.631123,241.260897 538.720992,237.708877 545.13745,234.574488 L546.55113,233.885803 C551.947371,231.213212 551.694963,230.41259 547.021118,225.734863 C534.810293,213.513886 510.642653,207.62001 492.739408,223.387174 L491.455995,224.541012 C491.333293,224.6537 491.212036,224.767853 491.093567,224.884827 C488.897949,227.052887 486.307526,228.267181 483.440857,226.634552 C480.325556,224.860351 480.350695,221.87295 481.323407,218.903761 L481.39624,218.686554 C484.470612,209.72113 485.72641,200.466904 484.631256,191.114365 C481.894348,167.74205 470.9422,149.308884 450.585114,136.985519 L450.128,136.71495 C445.505722,134.044385 444.007194,135.264326 444.283203,140.915939 C444.474659,144.837268 444.744654,148.780476 445.331642,152.659112 L445.517487,153.820679 C447.188843,163.716003 445.316803,173.393616 444.080688,183.113861 C443.896484,184.562576 443.220947,185.985565 442.585052,187.331833 C441.528564,189.568695 439.89563,191.263626 437.213837,191.095627 C434.4935,190.925217 433.197327,189.025726 432.538788,186.589783 C430.049377,177.381332 426.950684,168.443848 421.255615,160.622253 C404.086813,137.042606 381.547292,121.865235 352.728669,116.71415 L351.853455,116.561127 C348.589966,116.003235 344.214386,114.437775 341.954987,117.454834 C340.494867,119.404616 341.373171,121.620175 342.510483,123.766307 L342.740783,124.194509 L343.436156,125.462046 C343.661672,125.879099 343.875368,126.2898 344.060608,126.691467 C348.599335,136.532913 352.853119,146.476151 355.696106,156.961868 C356.304321,159.205154 356.904419,161.48262 357.154266,163.782761 L357.198407,164.234692 C357.418711,166.797425 357.095079,169.365885 354.346771,170.682251 C351.541229,172.026016 349.193024,170.81517 347.098663,168.887497 C344.891968,166.8564 342.721802,164.78186 340.449768,162.826111 C318.422638,143.865341 292.971161,134.395035 263.813721,135.402725 L262.789219,135.44232 C258.348449,135.634904 253.901761,136.136636 249.858658,138.354858 C249.857683,141.108218 251.867015,142.143593 253.449054,143.362808 L253.605743,143.485413 C261.570251,149.82074 269.393921,156.292191 275.930389,164.169205 C278.068359,166.745605 280.085876,169.395218 281.262695,172.555298 C281.917694,174.31427 282.169739,176.17659 280.762024,177.749268 C279.228546,179.462402 277.195404,179.628693 275.239166,178.866364 C271.362091,177.355499 267.603912,175.541489 263.737762,174.000305 C241.086446,164.970521 217.860796,161.083013 193.712508,166.292719 L192.420353,166.576547 L190.770373,166.923887 C188.117831,167.497811 185.465379,168.269464 183.683441,170.829605 C184.873856,173.713425 187.629471,173.909607 189.841248,174.729401 L191.716729,175.42924 C199.209099,178.246688 206.573413,181.311233 213.327835,185.703018 C215.85614,187.346939 218.216293,189.18689 220.156754,191.51004 L220.438649,191.852047 C221.740591,193.457162 222.809435,195.197019 221.834061,197.389832 C220.81839,199.673187 218.738632,200.261642 216.446777,200.27359 C213.947124,200.286625 211.447042,200.298218 208.947394,200.282722 L206.447922,200.257248 C181.342468,199.891602 159.936508,208.790619 141.85994,226.027405 L141.413388,226.457849 C135.540508,232.184153 135.97393,234.519138 143.371982,238.138222 L143.64917,238.272858 C144.049215,238.465831 144.451864,238.653758 144.85661,238.836938 L146.481208,239.560978 C149.232415,240.821638 151.67104,242.352727 151.305969,246.162231 C150.994898,249.408349 148.893328,250.382085 146.464947,251.123766 L146.057442,251.24558 L144.605255,251.668396 C125.291855,257.486267 107.200523,265.676514 91.925995,279.252014 C88.040817,282.705048 84.499748,286.441376 81.626038,290.76828 C77.588402,296.847656 78.497406,299.618958 85.358078,301.803162 C87.5344961,302.496063 89.750635,303.067932 91.9748407,303.610536 L96.1967808,304.628013 L96.847466,304.787186 C99.8823913,305.541027 102.833865,306.511863 103.140793,310.326233 C103.456105,314.2448 100.590118,315.656526 97.5939817,316.843041 L96.966019,317.088867 C80.283112,323.574951 66.708168,333.75351 58.045738,349.806488 C56.606899,352.4729 55.515331,355.209839 54.887318,358.175201 C53.5434813,364.520496 55.221221,367.45811 61.2986498,369.056764 L61.606194,369.13559 C66.886299,370.454315 68.060051,372.70285 66.147438,377.835236 C63.137772,385.911621 52.887688,389.752228 42.731667,386.608887 C31.841492,383.238312 25.185085,369.930969 27.042618,356.35318 C29.1385918,341.032516 37.0433465,329.152277 47.9776513,318.967724 L51.1432654,316.057454 C56.5509053,311.036776 55.0986059,311.475807 49.985359,304.89325 C24.577423,272.184204 11.445848,234.517609 4.656005,194.200531 C1.715259,176.738846 0.379844,159.166992 0.732214,141.484268 C1.452205,105.3535 7.667718,70.320183 22.214994,37.02684 C25.558495,29.374794 29.664497,22.140739 34.724689,15.464302 C47.409214,-1.271694 63.745514,-3.843391 80.989105,8.2911 Z M55.771027,32.827705 C53.81213,35.719261 52.124977,38.794914 49.983227,42.446068 C46.958527,48.393501 44.336678,54.516975 42.231564,60.845436 C28.539539,102.006836 24.674967,144.040115 31.494061,186.923599 C35.7701902,213.815058 43.1407241,239.733552 56.9066348,263.465393 L57.536774,264.542603 C58.922615,266.891815 59.926018,269.618805 62.455292,271.184509 C63.052467,270.722565 63.524422,270.488495 63.815109,270.11377 C75.7581567,254.718029 90.7741405,245.078222 110.736538,244.661872 L111.368576,244.651794 C112.57238,244.638489 113.819107,244.43161 114.306046,243.182983 C114.833885,241.829441 114.113524,240.959387 113.285408,240.18598 L112.933149,239.864649 C112.774263,239.721349 112.617272,239.579577 112.470009,239.436676 C107.32692,234.445923 106.825531,228.843903 109.952126,222.593658 C114.319946,213.862091 121.820045,208.263092 129.715134,203.269775 C138.155792,197.931381 146.898712,193.051956 155.665314,188.256699 C159.407157,186.209945 159.916628,184.124321 158.04243,180.499355 L157.919571,180.265869 C155.431778,175.616931 153.076756,170.897111 150.745748,166.164306 L147.953105,160.482413 C147.021426,158.588841 146.086629,156.696897 145.141754,154.810287 L143.268074,151.077045 C126.062819,116.872927 107.987602,83.1726125 84.996162,52.375404 C79.209473,44.624092 72.859856,37.301361 65.177513,31.323486 C60.831367,27.94162 58.817959,28.330078 55.771027,32.827705 Z M609.231812,29.735092 L607.547207,31.1945215 C604.46412,33.8720779 601.424105,36.5785121 598.651794,39.614639 C583.711121,55.977165 572.078125,74.611832 561.309753,93.826691 C545.16748,122.630585 531.700195,152.743179 518.140503,182.804382 L517.803478,183.536118 C516.661656,185.97587 515.373996,188.448611 515.087463,191.754608 L519.211116,192.657811 C534.597468,196.066646 549.841052,200.049918 563.388367,210.03183 C564.791138,211.2099 566.242676,212.335022 567.588928,213.574493 L568.227647,214.167419 C577.405715,222.761792 578.25085,226.959066 573.207153,238.023071 L574.822486,238.433467 C590.959251,242.574597 606.578297,247.885086 619.823792,259.252716 C621.335999,256.835815 622.655151,255.122925 623.562195,253.214233 C630.01709,239.631012 635.026306,225.474945 638.482605,210.88501 C645.163208,182.683609 647.49823,154.102951 644.822266,125.140991 C642.591248,100.99527 638.154175,77.353348 629.612183,54.612274 C626.509033,46.350998 622.644775,38.400345 617.781189,30.969742 C615.303772,27.184601 612.674255,26.754066 609.231812,29.735092 Z" id="Shape" fill="#000000" fill-rule="nonzero"></path>
    </g>
</svg>